<svg width="176" height="166" viewBox="0 0 176 166" fill="none" xmlns="http://www.w3.org/2000/svg">
<path d="M140.638 98.3567C120.402 98.3567 103.785 113.814 103.785 133.136C103.785 142.424 107.715 150.743 113.949 156.929C105.775 159.483 97.0687 160.919 87.9915 160.919C66.7422 160.919 50.9648 160.917 39.1668 159.684C27.3435 158.448 19.9537 156.009 15.1502 151.492C10.3719 146.998 7.79806 140.108 6.48971 129.033C5.18166 117.961 5.17831 103.146 5.17831 83.153C5.17831 63.1595 5.18166 48.3446 6.48971 37.2728C7.79806 26.1983 10.3719 19.3083 15.1502 14.8144C19.9537 10.2967 27.3435 7.85777 39.1668 6.62224C50.9648 5.38935 66.7422 5.38672 87.9915 5.38672C109.241 5.38672 125.018 5.38935 136.816 6.62224C148.64 7.85776 156.029 10.2967 160.833 14.8144C165.611 19.3083 168.185 26.1983 169.493 37.2728C170.801 48.3446 170.805 63.1595 170.805 83.153C170.805 91.976 169.179 100.433 166.275 108.345C159.651 102.207 150.657 98.3567 140.638 98.3567Z" fill="#D8D9DA" stroke="#0D1821" stroke-width="4"/>
<path d="M157.326 103.026L129.377 98.0439L113.36 108.506L66.7592 156.894L93.1008 112.782L129.377 51.9753L157.326 103.026Z" fill="#0D1821"/>
<path d="M28.075 158.326L20.1292 154.838L12.1834 145.871L9.00513 138.398L5.78462 121.957L62.5069 22.8164L111.771 108.506L102.765 140.391L112.3 156.333L104.355 158.326L81.1873 161.503L28.075 158.326Z" fill="#0D1821"/>
<path d="M143.841 106.008C159.176 108.473 169.61 122.904 167.145 138.24C164.68 153.575 150.25 164.009 134.914 161.544C119.578 159.079 109.144 144.649 111.609 129.313C114.075 113.977 128.505 103.543 143.841 106.008Z" fill="#3876BF" stroke="#0D1821" stroke-width="2"/>
<path d="M142.048 131.119L142.05 120.545C142.05 119.075 140.864 117.88 139.395 117.88C137.925 117.88 136.72 119.075 136.73 120.535L136.728 131.12L126.143 131.122C124.673 131.122 123.488 132.317 123.488 133.787C123.488 135.257 124.683 136.442 126.153 136.442L136.727 136.44L136.725 147.014C136.725 148.484 137.911 149.679 139.38 149.679C140.115 149.679 140.786 149.38 141.266 148.9C141.746 148.42 142.05 147.754 142.045 147.024L142.047 136.439L152.632 136.437C153.367 136.437 154.028 136.138 154.508 135.658C154.988 135.178 155.287 134.507 155.287 133.772C155.287 132.302 154.092 131.117 152.622 131.117L142.048 131.119Z" fill="#FFFAF3"/>
</svg>
