<svg width="176" height="167" viewBox="0 0 176 167" fill="none" xmlns="http://www.w3.org/2000/svg">
<mask id="path-1-inside-1_755_4416" fill="white">
<path d="M105.785 133.737C105.785 115.634 121.389 100.958 140.638 100.958C151.245 100.958 160.627 105.508 167.021 112.539C170.706 103.6 172.805 93.9172 172.805 83.754C172.805 3.98773 172.805 3.98773 87.9914 3.98773C3.17823 3.98773 3.17822 3.98778 3.17822 83.754C3.17822 163.52 3.17822 163.52 87.9914 163.52C98.5106 163.52 108.538 161.635 117.833 158.344C110.509 152.334 105.785 143.596 105.785 133.737Z"/>
</mask>
<path d="M105.785 133.737C105.785 115.634 121.389 100.958 140.638 100.958C151.245 100.958 160.627 105.508 167.021 112.539C170.706 103.6 172.805 93.9172 172.805 83.754C172.805 3.98773 172.805 3.98773 87.9914 3.98773C3.17823 3.98773 3.17822 3.98778 3.17822 83.754C3.17822 163.52 3.17822 163.52 87.9914 163.52C98.5106 163.52 108.538 161.635 117.833 158.344C110.509 152.334 105.785 143.596 105.785 133.737Z" fill="#D8D9DA" stroke="#0D1821" stroke-width="8" mask="url(#path-1-inside-1_755_4416)"/>
<path d="M157.326 103.627L129.377 98.6451L113.36 109.107L66.7591 157.495L93.1008 113.383L129.377 52.5764L157.326 103.627Z" fill="#0D1821"/>
<path d="M28.075 158.927L20.1292 155.44L12.1834 146.472L9.00509 138.999L5.78458 122.559L62.5069 23.4174L111.77 109.107L102.765 140.992L112.3 156.934L104.354 158.927L81.1872 162.104L28.075 158.927Z" fill="#0D1821"/>
<mask id="path-4-inside-2_755_4416" fill="white">
<path d="M168.132 138.999C170.685 123.118 159.88 108.175 143.999 105.622C128.118 103.069 113.175 113.874 110.622 129.755C108.069 145.636 118.874 160.58 134.755 163.132C150.636 165.685 165.58 154.88 168.132 138.999Z"/>
</mask>
<path d="M168.132 138.999C170.685 123.118 159.88 108.175 143.999 105.622C128.118 103.069 113.175 113.874 110.622 129.755C108.069 145.636 118.874 160.58 134.755 163.132C150.636 165.685 165.58 154.88 168.132 138.999Z" fill="#3876BF" stroke="#0D1821" stroke-width="4" mask="url(#path-4-inside-2_755_4416)"/>
<path d="M142.048 131.72L142.05 121.146C142.05 119.676 140.864 118.481 139.395 118.481C137.925 118.481 136.72 119.676 136.73 121.136L136.728 131.721L126.143 131.723C124.673 131.723 123.488 132.918 123.488 134.388C123.488 135.858 124.683 137.043 126.153 137.043L136.727 137.041L136.725 147.615C136.725 149.085 137.911 150.28 139.38 150.28C140.115 150.28 140.786 149.981 141.266 149.501C141.746 149.021 142.05 148.355 142.045 147.625L142.047 137.04L152.632 137.038C153.367 137.038 154.028 136.739 154.508 136.259C154.988 135.779 155.287 135.108 155.287 134.373C155.287 132.903 154.092 131.718 152.622 131.718L142.048 131.72Z" fill="#FFFAF3"/>
</svg>
