<svg width="167" height="167" viewBox="0 0 167 167" fill="none" xmlns="http://www.w3.org/2000/svg">
<path d="M99.858 133.227C99.858 115.058 114.587 100.329 132.756 100.329C144.021 100.329 153.946 106.005 159.875 114.639C163.884 104.9 166.126 94.248 166.126 83.063C166.126 37.189 128.938 0 83.063 0C37.188 0 0 37.188 0 83.063C0 128.938 37.188 166.126 83.063 166.126C93.977 166.126 104.37 163.965 113.916 160.14C105.434 154.188 99.858 144.374 99.858 133.227Z" fill="#0D1821" style="fill:#0D1821;fill:color(display-p3 0.0510 0.0941 0.1294);fill-opacity:1;"/>
<mask id="path-2-inside-1_588_1788" fill="white">
<path d="M99.8581 133.227C99.8581 115.058 114.587 100.329 132.756 100.329C142.768 100.329 151.624 104.896 157.659 111.952C161.137 102.981 163.118 93.263 163.118 83.063C163.118 38.85 127.277 3.008 83.0631 3.008C38.8491 3.008 3.00806 38.85 3.00806 83.063C3.00806 127.276 38.8491 163.118 83.0631 163.118C92.9921 163.118 102.457 161.226 111.23 157.923C104.317 151.891 99.8581 143.122 99.8581 133.227Z"/>
</mask>
<path d="M99.8581 133.227C99.8581 115.058 114.587 100.329 132.756 100.329C142.768 100.329 151.624 104.896 157.659 111.952C161.137 102.981 163.118 93.263 163.118 83.063C163.118 38.85 127.277 3.008 83.0631 3.008C38.8491 3.008 3.00806 38.85 3.00806 83.063C3.00806 127.276 38.8491 163.118 83.0631 163.118C92.9921 163.118 102.457 161.226 111.23 157.923C104.317 151.891 99.8581 143.122 99.8581 133.227Z" fill="#D8D9DA" stroke="#0D1821" style="fill:#D8D9DA;fill:color(display-p3 0.8471 0.8510 0.8549);fill-opacity:1;stroke:#0D1821;stroke:color(display-p3 0.0510 0.0941 0.1294);stroke-opacity:1;" stroke-width="4" mask="url(#path-2-inside-1_588_1788)"/>
<mask id="path-3-inside-2_588_1788" fill="white">
<path d="M99.858 133.227C99.858 125.566 102.585 118.608 106.976 113.017C105.612 111.164 105.845 108.645 105.334 106.42C105.178 105.721 105.009 104.996 104.564 104.436C103.522 103.124 101.655 102.714 100.5 101.5C99.801 100.765 100.015 99.846 99.666 99C99.652 98.357 99.666 98 99.666 97.278C100.032 96.606 100.866 96.273 101.444 95.798C102.059 95.294 102.695 94.847 103.351 94.4C104.747 93.448 106.042 92.419 106.694 90.804C107.641 88.455 108.281 85.729 108.557 83.218C108.85 80.557 108.261 77.4 109.399 74.891C110.496 72.471 112.027 70.429 113 68.5C112.214 65.929 113.279 63.062 112.313 60.84C111.862 59.802 111.14 59.148 110.525 58.257C109.875 57.314 110.297 56.181 110.433 55.088C110.844 51.807 110.141 48.499 109.442 45.267C109.195 44.121 108.944 42.968 108.522 41.874C107.635 39.583 105.957 37.624 103.875 36.332C102.821 35.678 101.616 35.385 100.564 34.767C99.4029 34.086 98.2109 33.528 96.9639 32.998C94.1969 31.823 91.3629 30.788 88.4449 30.052C82.7459 28.613 76.58 28.362 71.152 30.922C68.3419 32.251 64.1479 33.237 63.8489 36.332C59.8789 35.206 56.795 38.43 54.692 41.98C53.017 44.808 52.6789 48.09 52.8289 51.314C52.9649 54.268 54.0179 56.943 54.4489 59.875C54.5689 60.685 54.6699 61.58 54.2179 62.263C53.8379 62.836 53.1349 63.14 52.7799 63.728C52.5169 64.162 52.4819 64.691 52.4519 65.197C52.8289 69.5 52.8289 73 54.0639 75.867C54.3419 76.301 54.663 76.716 55.07 77.032C55.3909 77.282 55.7579 77.465 56.1029 77.681C57.7819 78.728 58.895 80.511 59.5149 82.389C60.09 84.131 59.9949 85.949 60.443 87.688C60.808 89.106 61.271 90.655 61.7799 92.044C62.2069 93.21 62.9899 93.915 63.8489 94.742C64.7409 95.603 65.278 96.591 66.567 96.95C66.643 97.207 66.7809 97.442 66.8829 97.69C67.1559 98.344 67.1829 99.071 67.208 99.781C67.2509 101.068 67.3729 103.107 66.4949 104.151C65.3889 105.463 63.1139 105.049 62.0759 106.546C61.5649 107.283 61.566 108.242 61.402 109.123C60.725 112.773 57.2239 115.1 54.0179 116.971C43.5059 123.109 32.9909 129.14 22.7209 135.638C37.3969 152.469 58.9799 163.119 83.0639 163.119C92.9979 163.119 102.48 161.253 111.254 157.943C104.327 151.91 99.858 143.132 99.858 133.227Z"/>
</mask>
<path d="M99.858 133.227C99.858 125.566 102.585 118.608 106.976 113.017C105.612 111.164 105.845 108.645 105.334 106.42C105.178 105.721 105.009 104.996 104.564 104.436C103.522 103.124 101.655 102.714 100.5 101.5C99.801 100.765 100.015 99.846 99.666 99C99.652 98.357 99.666 98 99.666 97.278C100.032 96.606 100.866 96.273 101.444 95.798C102.059 95.294 102.695 94.847 103.351 94.4C104.747 93.448 106.042 92.419 106.694 90.804C107.641 88.455 108.281 85.729 108.557 83.218C108.85 80.557 108.261 77.4 109.399 74.891C110.496 72.471 112.027 70.429 113 68.5C112.214 65.929 113.279 63.062 112.313 60.84C111.862 59.802 111.14 59.148 110.525 58.257C109.875 57.314 110.297 56.181 110.433 55.088C110.844 51.807 110.141 48.499 109.442 45.267C109.195 44.121 108.944 42.968 108.522 41.874C107.635 39.583 105.957 37.624 103.875 36.332C102.821 35.678 101.616 35.385 100.564 34.767C99.4029 34.086 98.2109 33.528 96.9639 32.998C94.1969 31.823 91.3629 30.788 88.4449 30.052C82.7459 28.613 76.58 28.362 71.152 30.922C68.3419 32.251 64.1479 33.237 63.8489 36.332C59.8789 35.206 56.795 38.43 54.692 41.98C53.017 44.808 52.6789 48.09 52.8289 51.314C52.9649 54.268 54.0179 56.943 54.4489 59.875C54.5689 60.685 54.6699 61.58 54.2179 62.263C53.8379 62.836 53.1349 63.14 52.7799 63.728C52.5169 64.162 52.4819 64.691 52.4519 65.197C52.8289 69.5 52.8289 73 54.0639 75.867C54.3419 76.301 54.663 76.716 55.07 77.032C55.3909 77.282 55.7579 77.465 56.1029 77.681C57.7819 78.728 58.895 80.511 59.5149 82.389C60.09 84.131 59.9949 85.949 60.443 87.688C60.808 89.106 61.271 90.655 61.7799 92.044C62.2069 93.21 62.9899 93.915 63.8489 94.742C64.7409 95.603 65.278 96.591 66.567 96.95C66.643 97.207 66.7809 97.442 66.8829 97.69C67.1559 98.344 67.1829 99.071 67.208 99.781C67.2509 101.068 67.3729 103.107 66.4949 104.151C65.3889 105.463 63.1139 105.049 62.0759 106.546C61.5649 107.283 61.566 108.242 61.402 109.123C60.725 112.773 57.2239 115.1 54.0179 116.971C43.5059 123.109 32.9909 129.14 22.7209 135.638C37.3969 152.469 58.9799 163.119 83.0639 163.119C92.9979 163.119 102.48 161.253 111.254 157.943C104.327 151.91 99.858 143.132 99.858 133.227Z" fill="#939393" stroke="#0D1821" style="fill:#939393;fill:color(display-p3 0.5783 0.5783 0.5783);fill-opacity:1;stroke:#0D1821;stroke:color(display-p3 0.0510 0.0941 0.1294);stroke-opacity:1;" stroke-width="4" mask="url(#path-3-inside-2_588_1788)"/>
<mask id="path-4-inside-3_588_1788" fill="white">
<path d="M161.501 137.846C164.054 121.965 153.249 107.021 137.368 104.469C121.487 101.916 106.544 112.721 103.991 128.602C101.438 144.483 112.243 159.426 128.124 161.979C144.005 164.532 158.949 153.727 161.501 137.846Z"/>
</mask>
<path d="M161.501 137.846C164.054 121.965 153.249 107.021 137.368 104.469C121.487 101.916 106.544 112.721 103.991 128.602C101.438 144.483 112.243 159.426 128.124 161.979C144.005 164.532 158.949 153.727 161.501 137.846Z" fill="#3876BF" stroke="#0D1821" style="fill:#3876BF;fill:color(display-p3 0.2196 0.4627 0.7490);fill-opacity:1;stroke:#0D1821;stroke:color(display-p3 0.0510 0.0941 0.1294);stroke-opacity:1;" stroke-width="4" mask="url(#path-4-inside-3_588_1788)"/>
<path d="M135.417 130.566L135.419 119.992C135.419 118.522 134.233 117.327 132.764 117.327C131.294 117.327 130.089 118.522 130.099 119.982L130.097 130.567L119.512 130.569C118.042 130.569 116.857 131.764 116.857 133.234C116.857 134.704 118.052 135.889 119.522 135.889L130.096 135.887L130.094 146.461C130.094 147.931 131.28 149.126 132.749 149.126C133.484 149.126 134.155 148.827 134.635 148.347C135.115 147.867 135.419 147.201 135.414 146.471L135.416 135.886L146.001 135.884C146.736 135.884 147.397 135.585 147.877 135.105C148.357 134.625 148.656 133.954 148.656 133.219C148.656 131.749 147.461 130.564 145.991 130.564L135.417 130.566Z" fill="#FFFAF3" style="fill:#FFFAF3;fill:color(display-p3 1.0000 0.9811 0.9538);fill-opacity:1;"/>
</svg>
