<svg width="39" height="39" viewBox="0 0 39 39" fill="none" xmlns="http://www.w3.org/2000/svg">
<path d="M13.0014 19.4891C13.0014 15.9014 15.9108 12.9922 19.5007 12.9922C23.0905 12.9922 26.0014 15.9014 26.0014 19.4891C26.0014 23.0768 23.0905 25.986 19.5007 25.986C15.9108 25.986 13.0014 23.0768 13.0014 19.4891ZM9.48724 19.4891C9.48724 25.0162 13.9702 29.4965 19.5007 29.4965C25.0311 29.4965 29.5141 25.0162 29.5141 19.4891C29.5141 13.962 25.0311 9.48167 19.5007 9.48167C13.9702 9.48167 9.48724 13.962 9.48724 19.4891ZM27.5704 9.08488C27.5702 9.54743 27.7073 9.99964 27.9643 10.3843C28.2212 10.769 28.5866 11.0689 29.0141 11.2461C29.4416 11.4233 29.9121 11.4698 30.3661 11.3797C30.8201 11.2897 31.2371 11.0671 31.5645 10.7402C31.8919 10.4132 32.115 9.99661 32.2054 9.54298C32.2959 9.08936 32.2498 8.61911 32.0728 8.1917C31.8959 7.76429 31.5961 7.39891 31.2114 7.14178C30.8266 6.88465 30.3742 6.74731 29.9114 6.74712H29.9105C29.2901 6.74741 28.6952 6.99377 28.2564 7.4321C27.8177 7.87042 27.5709 8.46487 27.5704 9.08488ZM11.6223 35.3527C9.7211 35.2662 8.68771 34.9497 8.00097 34.6823C7.09052 34.3281 6.44091 33.9062 5.75791 33.2245C5.07492 32.5429 4.65214 31.8943 4.29925 30.9844C4.03155 30.2984 3.71485 29.2653 3.62843 27.3652C3.53389 25.3109 3.51501 24.6938 3.51501 19.4892C3.51501 14.2847 3.53545 13.6693 3.62843 11.6133C3.71501 9.7132 4.03404 8.68215 4.29925 7.99411C4.6537 7.0842 5.07585 6.43498 5.75791 5.7524C6.43997 5.06981 7.08896 4.64729 8.00097 4.29461C8.6874 4.02707 9.7211 3.71057 11.6223 3.62419C13.6779 3.52971 14.2954 3.51084 19.5007 3.51084C24.706 3.51084 25.3241 3.53127 27.3813 3.62419C29.2826 3.71072 30.3142 4.02956 31.0027 4.29461C31.9131 4.64729 32.5628 5.07075 33.2457 5.7524C33.9287 6.43405 34.35 7.0842 34.7044 7.99411C34.9721 8.68013 35.2888 9.7132 35.3752 11.6133C35.4698 13.6693 35.4886 14.2847 35.4886 19.4892C35.4886 24.6938 35.4698 25.3091 35.3752 27.3652C35.2886 29.2653 34.9704 30.298 34.7044 30.9844C34.35 31.8943 33.9278 32.5435 33.2457 33.2245C32.5637 33.9055 31.9131 34.3281 31.0027 34.6823C30.3163 34.9499 29.2826 35.2664 27.3813 35.3527C25.3258 35.4472 24.7083 35.4661 19.5007 35.4661C14.293 35.4661 13.6773 35.4472 11.6223 35.3527ZM11.4609 0.118026C9.3849 0.212509 7.96634 0.541485 6.72749 1.02325C5.4445 1.52077 4.35838 2.18823 3.27304 3.2712C2.18771 4.35417 1.52156 5.44135 1.02375 6.72358C0.541688 7.96246 0.212514 9.37939 0.117975 11.4541C0.0218748 13.5321 -0.00012207 14.1965 -0.00012207 19.4891C-0.00012207 24.7817 0.0218748 25.446 0.117975 27.524C0.212514 29.5989 0.541688 31.0157 1.02375 32.2546C1.52156 33.536 2.18787 34.6245 3.27304 35.707C4.35822 36.7895 5.4445 37.456 6.72749 37.9549C7.96868 38.4367 9.3849 38.7657 11.4609 38.8601C13.5412 38.9546 14.2049 38.9782 19.5007 38.9782C24.7964 38.9782 25.4612 38.9562 27.5404 38.8601C29.6166 38.7657 31.0342 38.4367 32.2738 37.9549C33.556 37.456 34.6429 36.7899 35.7283 35.707C36.8136 34.624 37.4784 33.536 37.9776 32.2546C38.4596 31.0157 38.7904 29.5988 38.8833 27.524C38.9779 25.4445 38.9999 24.7817 38.9999 19.4891C38.9999 14.1965 38.9779 13.5321 38.8833 11.4541C38.7888 9.37924 38.4596 7.96168 37.9776 6.72358C37.4784 5.44213 36.8119 4.35589 35.7283 3.2712C34.6447 2.18652 33.556 1.52077 32.2754 1.02325C31.0342 0.541485 29.6164 0.21095 27.542 0.118026C25.4627 0.0235428 24.798 0 19.5022 0C14.2064 0 13.5412 0.0219837 11.4609 0.118026Z" fill="#0D1821"/>
</svg>
