<svg width="39" height="39" viewBox="0 0 39 39" fill="none" xmlns="http://www.w3.org/2000/svg">
<path fill-rule="evenodd" clip-rule="evenodd" d="M2.88228 0C1.2909 0 -6.10352e-05 1.25166 -6.10352e-05 2.79368V36.2072C-6.10352e-05 37.7494 1.29105 39 2.88228 39H36.1176C37.7096 39 38.9999 37.7493 38.9999 36.2068V2.79368C38.9999 1.25166 37.7096 0 36.1176 0H2.88228ZM11.8513 15.08V32.638H6.01536V15.08H11.8513ZM12.236 9.65005C12.236 11.335 10.9693 12.6832 8.93458 12.6832L8.89634 12.6831C6.93765 12.6831 5.67137 11.3348 5.67137 9.64989C5.67137 7.92673 6.97589 6.61612 8.97327 6.61612C10.9693 6.61612 12.1979 7.92673 12.236 9.65005ZM20.9172 32.638H15.0816C15.0816 32.638 15.1581 16.7278 15.082 15.0806H20.9176V17.5659C21.6934 16.3698 23.0818 14.6684 26.1773 14.6684C30.0168 14.6684 32.8955 17.178 32.8955 22.5708V32.638H27.0601V23.246C27.0601 20.8854 26.2151 19.2754 24.1039 19.2754C22.4913 19.2754 21.5311 20.3612 21.1094 21.4101C20.9553 21.7844 20.9172 22.3098 20.9172 22.8339V32.638Z" fill="#0D1821"/>
</svg>
