<svg width="39" height="33" viewBox="0 0 39 33" fill="none" xmlns="http://www.w3.org/2000/svg">
<path d="M38.8266 3.86196C37.565 4.40489 36.2388 4.78295 34.8806 4.98681C35.5156 4.87795 36.4499 3.73496 36.8218 3.27232C37.3869 2.57447 37.8175 1.77782 38.0918 0.922833C38.0918 0.859333 38.1553 0.768619 38.0918 0.723262C38.0598 0.705795 38.024 0.696641 37.9875 0.696641C37.951 0.696641 37.9152 0.705795 37.8832 0.723262C36.4084 1.52193 34.8387 2.13149 33.2114 2.53754C33.1547 2.55486 33.0943 2.55642 33.0368 2.54204C32.9793 2.52765 32.9267 2.49787 32.8849 2.4559C32.7582 2.30506 32.6218 2.16264 32.4766 2.02954C31.8129 1.43487 31.0599 0.94815 30.2451 0.587192C29.1452 0.135961 27.9572 -0.0594572 26.7708 0.0156953C25.6195 0.0884004 24.4956 0.397181 23.4688 0.922833C22.4576 1.47702 21.569 2.22991 20.8562 3.13625C20.1065 4.0691 19.5652 5.1517 19.2687 6.31123C19.0243 7.41417 18.9966 8.55411 19.1871 9.66764C19.1871 9.85814 19.1871 9.88535 19.0238 9.85814C12.5559 8.90564 7.24915 6.61058 2.91304 1.68483C2.72254 1.46712 2.62275 1.46712 2.46854 1.68483C0.581694 4.55138 1.4979 9.08707 3.85646 11.3277C4.17396 11.6271 4.50053 11.9173 4.84524 12.1895C3.76386 12.1127 2.70888 11.8197 1.74283 11.3277C1.5614 11.2098 1.46162 11.2733 1.45255 11.491C1.42683 11.7928 1.42683 12.0963 1.45255 12.3981C1.64183 13.8446 2.21189 15.2149 3.10444 16.3689C3.997 17.5228 5.18001 18.419 6.53252 18.9658C6.86222 19.107 7.20577 19.2134 7.55758 19.2833C6.55649 19.4804 5.52974 19.511 4.51867 19.374C4.30096 19.3287 4.21932 19.4466 4.30096 19.6552C5.63445 23.2838 8.52822 24.3905 10.6509 25.0073C10.9412 25.0527 11.2315 25.0527 11.5581 25.1253C11.5581 25.1253 11.5581 25.1253 11.5036 25.1797C10.8777 26.3227 8.34679 27.0938 7.18565 27.4929C5.06628 28.2542 2.80664 28.5451 0.563551 28.3456C0.209768 28.2912 0.128125 28.3002 0.0374114 28.3456C-0.0533023 28.391 0.0374114 28.4907 0.137197 28.5815C0.590765 28.8808 1.04433 29.1439 1.51605 29.3979C2.92034 30.1638 4.40495 30.7723 5.94288 31.2122C13.9075 33.4074 22.8701 31.7927 28.8481 25.851C33.5471 21.1883 35.1981 14.7567 35.1981 8.316C35.1981 8.07108 35.4974 7.92593 35.6698 7.79893C36.8586 6.87265 37.9067 5.77873 38.7812 4.55138C38.9327 4.36843 39.0104 4.13549 38.999 3.89824C38.999 3.76217 38.999 3.78939 38.8266 3.86196Z" fill="#0D1821"/>
</svg>
