<svg width="171" height="40" viewBox="0 0 171 40" fill="none" xmlns="http://www.w3.org/2000/svg">
<g clip-path="url(#clip0_1040_231)">
<path d="M0 16C0 7.16344 7.16344 0 16 0H155C163.837 0 171 7.16344 171 16V24C171 32.8366 163.837 40 155 40H16C7.16344 40 0 32.8366 0 24V16Z" fill="#3876BF"/>
<path d="M66.0032 14.832L61.9072 26H59.1872L55.0912 14.832H57.4912L60.5632 23.712L63.6192 14.832H66.0032ZM68.4822 16.08C68.0875 16.08 67.7569 15.9573 67.4902 15.712C67.2342 15.456 67.1062 15.1413 67.1062 14.768C67.1062 14.3947 67.2342 14.0853 67.4902 13.84C67.7569 13.584 68.0875 13.456 68.4822 13.456C68.8769 13.456 69.2022 13.584 69.4582 13.84C69.7249 14.0853 69.8582 14.3947 69.8582 14.768C69.8582 15.1413 69.7249 15.456 69.4582 15.712C69.2022 15.9573 68.8769 16.08 68.4822 16.08ZM69.5862 17.136V26H67.3462V17.136H69.5862ZM76.7113 17.008C77.7673 17.008 78.6206 17.344 79.2713 18.016C79.922 18.6773 80.2473 19.6053 80.2473 20.8V26H78.0073V21.104C78.0073 20.4 77.8313 19.8613 77.4793 19.488C77.1273 19.104 76.6473 18.912 76.0393 18.912C75.4206 18.912 74.93 19.104 74.5673 19.488C74.2153 19.8613 74.0393 20.4 74.0393 21.104V26H71.7993V17.136H74.0393V18.24C74.338 17.856 74.7166 17.5573 75.1753 17.344C75.6446 17.12 76.1566 17.008 76.7113 17.008ZM81.8014 21.568C81.8014 20.6507 81.9881 19.8507 82.3614 19.168C82.7348 18.4747 83.2521 17.9413 83.9134 17.568C84.5748 17.184 85.3321 16.992 86.1854 16.992C87.2841 16.992 88.1908 17.2693 88.9054 17.824C89.6308 18.368 90.1161 19.136 90.3614 20.128H87.9454C87.8174 19.744 87.5988 19.4453 87.2894 19.232C86.9908 19.008 86.6174 18.896 86.1694 18.896C85.5294 18.896 85.0228 19.1307 84.6494 19.6C84.2761 20.0587 84.0894 20.7147 84.0894 21.568C84.0894 22.4107 84.2761 23.0667 84.6494 23.536C85.0228 23.9947 85.5294 24.224 86.1694 24.224C87.0761 24.224 87.6681 23.8187 87.9454 23.008H90.3614C90.1161 23.968 89.6308 24.7307 88.9054 25.296C88.1801 25.8613 87.2734 26.144 86.1854 26.144C85.3321 26.144 84.5748 25.9573 83.9134 25.584C83.2521 25.2 82.7348 24.6667 82.3614 23.984C81.9881 23.2907 81.8014 22.4853 81.8014 21.568ZM100.37 17.136V26H98.1144V24.88C97.8264 25.264 97.4478 25.568 96.9784 25.792C96.5198 26.0053 96.0184 26.112 95.4744 26.112C94.7811 26.112 94.1678 25.968 93.6344 25.68C93.1011 25.3813 92.6798 24.9493 92.3704 24.384C92.0718 23.808 91.9224 23.1253 91.9224 22.336V17.136H94.1624V22.016C94.1624 22.72 94.3384 23.264 94.6904 23.648C95.0424 24.0213 95.5224 24.208 96.1304 24.208C96.7491 24.208 97.2344 24.0213 97.5864 23.648C97.9384 23.264 98.1144 22.72 98.1144 22.016V17.136H100.37ZM104.821 14.16V26H102.581V14.16H104.821ZM110.97 26.144C110.116 26.144 109.348 25.9573 108.666 25.584C107.983 25.2 107.444 24.6613 107.05 23.968C106.666 23.2747 106.474 22.4747 106.474 21.568C106.474 20.6613 106.671 19.8613 107.066 19.168C107.471 18.4747 108.02 17.9413 108.714 17.568C109.407 17.184 110.18 16.992 111.034 16.992C111.887 16.992 112.66 17.184 113.354 17.568C114.047 17.9413 114.591 18.4747 114.986 19.168C115.391 19.8613 115.594 20.6613 115.594 21.568C115.594 22.4747 115.386 23.2747 114.97 23.968C114.564 24.6613 114.01 25.2 113.306 25.584C112.612 25.9573 111.834 26.144 110.97 26.144ZM110.97 24.192C111.375 24.192 111.754 24.096 112.106 23.904C112.468 23.7013 112.756 23.4027 112.97 23.008C113.183 22.6133 113.29 22.1333 113.29 21.568C113.29 20.7253 113.066 20.08 112.618 19.632C112.18 19.1733 111.642 18.944 111.002 18.944C110.362 18.944 109.823 19.1733 109.386 19.632C108.959 20.08 108.746 20.7253 108.746 21.568C108.746 22.4107 108.954 23.0613 109.37 23.52C109.796 23.968 110.33 24.192 110.97 24.192Z" fill="#FFFAF3"/>
</g>
<defs>
<clipPath id="clip0_1040_231">
<path d="M0 16C0 7.16344 7.16344 0 16 0H155C163.837 0 171 7.16344 171 16V24C171 32.8366 163.837 40 155 40H16C7.16344 40 0 32.8366 0 24V16Z" fill="white"/>
</clipPath>
</defs>
</svg>
