<svg width="48" height="48" viewBox="0 0 48 48" fill="none" xmlns="http://www.w3.org/2000/svg">
<path d="M17.0014 23.4891C17.0014 19.9014 19.9108 16.9922 23.5007 16.9922C27.0905 16.9922 30.0014 19.9014 30.0014 23.4891C30.0014 27.0768 27.0905 29.986 23.5007 29.986C19.9108 29.986 17.0014 27.0768 17.0014 23.4891ZM13.4872 23.4891C13.4872 29.0162 17.9702 33.4965 23.5007 33.4965C29.0311 33.4965 33.5141 29.0162 33.5141 23.4891C33.5141 17.962 29.0311 13.4817 23.5007 13.4817C17.9702 13.4817 13.4872 17.962 13.4872 23.4891ZM31.5704 13.0849C31.5702 13.5474 31.7073 13.9996 31.9643 14.3843C32.2212 14.769 32.5866 15.0689 33.0141 15.2461C33.4416 15.4233 33.9121 15.4698 34.3661 15.3797C34.8201 15.2897 35.2371 15.0671 35.5645 14.7402C35.8919 14.4132 36.115 13.9966 36.2054 13.543C36.2959 13.0894 36.2498 12.6191 36.0728 12.1917C35.8959 11.7643 35.5961 11.3989 35.2114 11.1418C34.8266 10.8846 34.3742 10.7473 33.9114 10.7471H33.9105C33.2901 10.7474 32.6952 10.9938 32.2564 11.4321C31.8177 11.8704 31.5709 12.4649 31.5704 13.0849ZM15.6223 39.3527C13.7211 39.2662 12.6877 38.9497 12.001 38.6823C11.0905 38.3281 10.4409 37.9062 9.75791 37.2245C9.07492 36.5429 8.65214 35.8943 8.29925 34.9844C8.03155 34.2984 7.71485 33.2653 7.62843 31.3652C7.53389 29.3109 7.51501 28.6938 7.51501 23.4892C7.51501 18.2847 7.53545 17.6693 7.62843 15.6133C7.71501 13.7132 8.03404 12.6822 8.29925 11.9941C8.6537 11.0842 9.07585 10.435 9.75791 9.7524C10.44 9.06981 11.089 8.64729 12.001 8.29461C12.6874 8.02707 13.7211 7.71057 15.6223 7.62419C17.6779 7.52971 18.2954 7.51084 23.5007 7.51084C28.706 7.51084 29.3241 7.53127 31.3813 7.62419C33.2826 7.71072 34.3142 8.02956 35.0027 8.29461C35.9131 8.64729 36.5628 9.07075 37.2457 9.7524C37.9287 10.434 38.35 11.0842 38.7044 11.9941C38.9721 12.6801 39.2888 13.7132 39.3752 15.6133C39.4698 17.6693 39.4886 18.2847 39.4886 23.4892C39.4886 28.6938 39.4698 29.3091 39.3752 31.3652C39.2886 33.2653 38.9704 34.298 38.7044 34.9844C38.35 35.8943 37.9278 36.5435 37.2457 37.2245C36.5637 37.9055 35.9131 38.3281 35.0027 38.6823C34.3163 38.9499 33.2826 39.2664 31.3813 39.3527C29.3258 39.4472 28.7083 39.4661 23.5007 39.4661C18.293 39.4661 17.6773 39.4472 15.6223 39.3527ZM15.4609 4.11803C13.3849 4.21251 11.9663 4.54148 10.7275 5.02325C9.4445 5.52077 8.35838 6.18823 7.27304 7.2712C6.18771 8.35417 5.52156 9.44135 5.02375 10.7236C4.54169 11.9625 4.21251 13.3794 4.11797 15.4541C4.02187 17.5321 3.99988 18.1965 3.99988 23.4891C3.99988 28.7817 4.02187 29.446 4.11797 31.524C4.21251 33.5989 4.54169 35.0157 5.02375 36.2546C5.52156 37.536 6.18787 38.6245 7.27304 39.707C8.35822 40.7895 9.4445 41.456 10.7275 41.9549C11.9687 42.4367 13.3849 42.7657 15.4609 42.8601C17.5412 42.9546 18.2049 42.9782 23.5007 42.9782C28.7964 42.9782 29.4612 42.9562 31.5404 42.8601C33.6166 42.7657 35.0342 42.4367 36.2738 41.9549C37.556 41.456 38.6429 40.7899 39.7283 39.707C40.8136 38.624 41.4784 37.536 41.9776 36.2546C42.4596 35.0157 42.7904 33.5988 42.8833 31.524C42.9779 29.4445 42.9999 28.7817 42.9999 23.4891C42.9999 18.1965 42.9779 17.5321 42.8833 15.4541C42.7888 13.3792 42.4596 11.9617 41.9776 10.7236C41.4784 9.44213 40.8119 8.35589 39.7283 7.2712C38.6447 6.18652 37.556 5.52077 36.2754 5.02325C35.0342 4.54148 33.6164 4.21095 31.542 4.11803C29.4627 4.02354 28.798 4 23.5022 4C18.2064 4 17.5412 4.02198 15.4609 4.11803Z" fill="#0D1821"/>
</svg>
