<svg width="48" height="48" viewBox="0 0 48 48" fill="none" xmlns="http://www.w3.org/2000/svg">
<path fill-rule="evenodd" clip-rule="evenodd" d="M6.88228 4C5.2909 4 3.99994 5.25166 3.99994 6.79368V40.2072C3.99994 41.7494 5.29105 43 6.88228 43H40.1176C41.7096 43 42.9999 41.7493 42.9999 40.2068V6.79368C42.9999 5.25166 41.7096 4 40.1176 4H6.88228ZM15.8513 19.08V36.638H10.0154V19.08H15.8513ZM16.236 13.65C16.236 15.335 14.9693 16.6832 12.9346 16.6832L12.8963 16.6831C10.9377 16.6831 9.67137 15.3348 9.67137 13.6499C9.67137 11.9267 10.9759 10.6161 12.9733 10.6161C14.9693 10.6161 16.1979 11.9267 16.236 13.65ZM24.9172 36.638H19.0816C19.0816 36.638 19.1581 20.7278 19.082 19.0806H24.9176V21.5659C25.6934 20.3698 27.0818 18.6684 30.1773 18.6684C34.0168 18.6684 36.8955 21.178 36.8955 26.5708V36.638H31.0601V27.246C31.0601 24.8854 30.2151 23.2754 28.1039 23.2754C26.4913 23.2754 25.5311 24.3612 25.1094 25.4101C24.9553 25.7844 24.9172 26.3098 24.9172 26.8339V36.638Z" fill="#0D1821"/>
</svg>
