<svg width="48" height="48" viewBox="0 0 48 48" fill="none" xmlns="http://www.w3.org/2000/svg">
<path d="M42.8266 11.862C41.565 12.4049 40.2388 12.783 38.8806 12.9868C39.5156 12.878 40.4499 11.735 40.8218 11.2723C41.3869 10.5745 41.8175 9.77782 42.0918 8.92283C42.0918 8.85933 42.1553 8.76862 42.0918 8.72326C42.0598 8.70579 42.024 8.69664 41.9875 8.69664C41.951 8.69664 41.9152 8.70579 41.8832 8.72326C40.4084 9.52193 38.8387 10.1315 37.2114 10.5375C37.1547 10.5549 37.0943 10.5564 37.0368 10.542C36.9793 10.5277 36.9267 10.4979 36.8849 10.4559C36.7582 10.3051 36.6218 10.1626 36.4766 10.0295C35.8129 9.43487 35.0599 8.94815 34.2451 8.58719C33.1452 8.13596 31.9572 7.94054 30.7708 8.0157C29.6195 8.0884 28.4956 8.39718 27.4688 8.92283C26.4576 9.47702 25.569 10.2299 24.8562 11.1362C24.1065 12.0691 23.5652 13.1517 23.2687 14.3112C23.0243 15.4142 22.9966 16.5541 23.1871 17.6676C23.1871 17.8581 23.1871 17.8854 23.0238 17.8581C16.5559 16.9056 11.2492 14.6106 6.91304 9.68483C6.72254 9.46712 6.62275 9.46712 6.46854 9.68483C4.58169 12.5514 5.4979 17.0871 7.85646 19.3277C8.17396 19.6271 8.50053 19.9173 8.84524 20.1895C7.76386 20.1127 6.70888 19.8197 5.74283 19.3277C5.5614 19.2098 5.46162 19.2733 5.45255 19.491C5.42683 19.7928 5.42683 20.0963 5.45255 20.3981C5.64183 21.8446 6.21189 23.2149 7.10444 24.3689C7.997 25.5228 9.18001 26.419 10.5325 26.9658C10.8622 27.107 11.2058 27.2134 11.5576 27.2833C10.5565 27.4804 9.52974 27.511 8.51867 27.374C8.30096 27.3287 8.21932 27.4466 8.30096 27.6552C9.63445 31.2838 12.5282 32.3905 14.6509 33.0073C14.9412 33.0527 15.2315 33.0527 15.5581 33.1253C15.5581 33.1253 15.5581 33.1253 15.5036 33.1797C14.8777 34.3227 12.3468 35.0938 11.1857 35.4929C9.06628 36.2542 6.80664 36.5451 4.56355 36.3456C4.20977 36.2912 4.12813 36.3002 4.03741 36.3456C3.9467 36.391 4.03741 36.4907 4.1372 36.5815C4.59077 36.8808 5.04433 37.1439 5.51605 37.3979C6.92034 38.1638 8.40495 38.7723 9.94288 39.2122C17.9075 41.4074 26.8701 39.7927 32.8481 33.851C37.5471 29.1883 39.1981 22.7567 39.1981 16.316C39.1981 16.0711 39.4974 15.9259 39.6698 15.7989C40.8586 14.8727 41.9067 13.7787 42.7812 12.5514C42.9327 12.3684 43.0104 12.1355 42.999 11.8982C42.999 11.7622 42.999 11.7894 42.8266 11.862Z" fill="#0D1821"/>
</svg>
